<svg width="16" height="10" viewBox="0 0 16 10" fill="none" xmlns="http://www.w3.org/2000/svg">
<path d="M10.4839 7.01671C9.82525 7.16044 9.406 7.81268 9.549 8.47582C9.69092 9.13786 10.3398 9.55817 10.9996 9.41553C11.6583 9.27397 12.0775 8.62064 11.9356 7.95859C11.8673 7.64064 11.6756 7.36188 11.4048 7.18548C11.1318 7.00799 10.8003 6.94811 10.4839 7.01671ZM11.3625 4.28251C11.135 4.33259 10.9617 4.51335 10.9194 4.74311C10.8783 4.97177 10.979 5.20371 11.174 5.33002C11.369 5.45633 11.6203 5.45197 11.8099 5.31913C12.0006 5.18628 12.0927 4.95108 12.0439 4.7235C11.9768 4.41208 11.6713 4.21499 11.3614 4.28251H11.3625ZM3.44117 7.79635C3.21151 7.84644 3.06526 8.07511 3.11509 8.30813C3.16492 8.53897 3.39242 8.68597 3.62317 8.63479C3.85284 8.5847 3.99909 8.35604 3.94926 8.12519C3.92542 8.01412 3.85826 7.91613 3.76292 7.85515C3.66759 7.79308 3.55167 7.77239 3.44117 7.79635ZM8.17642 5.05126C7.85575 5.11986 7.60984 5.37793 7.55134 5.70133C7.49284 6.02473 7.63475 6.35248 7.90992 6.53106C8.18617 6.70855 8.54042 6.70201 8.80909 6.51473C9.07992 6.32635 9.20992 5.99424 9.1395 5.67302C9.04417 5.2331 8.61301 4.95435 8.17534 5.05017L8.17642 5.05126ZM3.36209 5.05126C2.92442 5.14599 2.64709 5.57937 2.74242 6.01928C2.83776 6.45811 3.27001 6.73686 3.70659 6.64104C4.14317 6.54522 4.42159 6.11184 4.32517 5.67193C4.27967 5.46177 4.15292 5.27775 3.97201 5.16015C3.79109 5.04364 3.57117 5.00444 3.36209 5.05126ZM10.9183 2.9116C11.3842 2.81033 11.7417 2.43684 11.8273 1.96535C11.9118 1.49495 11.7059 1.01802 11.3051 0.75995C10.9043 0.500795 10.3886 0.509506 9.9975 0.782817C9.60642 1.05613 9.41684 1.53959 9.51867 2.00673C9.65625 2.64482 10.2835 3.04988 10.9183 2.9116ZM5.58292 7.60253C5.20376 7.84208 5.09001 8.34297 5.32617 8.72408C5.56342 9.10519 6.06176 9.22061 6.44201 8.98433C6.82117 8.74695 6.93709 8.24606 6.702 7.86386C6.58825 7.67984 6.40626 7.54808 6.19609 7.50017C5.98701 7.45117 5.76601 7.48819 5.58292 7.60253ZM13.7274 3.44624C13.9647 3.82735 14.4641 3.94277 14.8433 3.70431C15.2224 3.46475 15.3373 2.96386 15.1 2.58275C14.8628 2.20164 14.3633 2.08513 13.9842 2.32359C13.8011 2.43793 13.6722 2.62086 13.6234 2.83102C13.5758 3.04117 13.6126 3.26331 13.7274 3.44624ZM13.6202 5.76557C13.241 6.00404 13.1251 6.50602 13.3623 6.88713C13.6007 7.26824 14.099 7.38475 14.4782 7.14628C14.8573 6.90782 14.9733 6.40584 14.736 6.02473C14.6223 5.8418 14.4413 5.71113 14.2312 5.66213C14.0221 5.61422 13.8022 5.65124 13.6202 5.76557ZM2.90601 2.39764C2.56692 1.8532 1.85409 1.68986 1.31351 2.02959C0.771839 2.37042 0.608256 3.08582 0.946256 3.63026C1.28534 4.17471 1.99709 4.33913 2.53876 4.00048C2.79876 3.83606 2.98401 3.57582 3.05334 3.27528C3.12159 2.97475 3.06851 2.65897 2.90601 2.39764Z" fill="white"/>
</svg>
