<svg width="15" height="10" viewBox="0 0 15 10" fill="none" xmlns="http://www.w3.org/2000/svg">
<path d="M9.76302 6.93352C9.13134 7.07017 8.73 7.69074 8.86698 8.32089C9.00309 8.95104 9.62604 9.35141 10.2568 9.2165C10.8885 9.08072 11.2907 8.45928 11.1555 7.83C11.0901 7.52624 10.906 7.26165 10.6451 7.09367C10.3834 6.92569 10.0666 6.86737 9.76302 6.93352ZM10.605 4.33111C10.3877 4.37898 10.2211 4.55132 10.1809 4.76978C10.1417 4.98737 10.2377 5.20845 10.4252 5.32856C10.6111 5.4478 10.8528 5.44432 11.0351 5.31724C11.2175 5.19104 11.3056 4.96735 11.2585 4.7515C11.1939 4.45557 10.9016 4.26758 10.605 4.33198V4.33111ZM3.01088 7.67508C2.79014 7.72295 2.64967 7.94054 2.69766 8.16161C2.74564 8.38182 2.96376 8.52195 3.1845 8.47321C3.40611 8.42533 3.54571 8.20861 3.49859 7.98754C3.47504 7.88223 3.41135 7.78996 3.31974 7.73078C3.22813 7.67246 3.11732 7.65245 3.01088 7.67508ZM7.55041 5.06222C7.24329 5.12837 7.00685 5.37295 6.95101 5.68106C6.89517 5.99004 7.03128 6.30163 7.29564 6.47048C7.56 6.64021 7.90027 6.63411 8.15853 6.45569C8.41591 6.27639 8.54067 5.96045 8.47437 5.65495C8.38276 5.23717 7.9692 4.97171 7.55041 5.06222ZM2.93497 5.06222C2.51618 5.15361 2.25007 5.56617 2.34168 5.98395C2.43242 6.40172 2.84598 6.66719 3.26477 6.5758C3.68356 6.48528 3.94967 6.07273 3.85806 5.65408C3.81443 5.45389 3.69316 5.27808 3.51953 5.16667C3.34678 5.05613 3.13564 5.01871 2.93497 5.06222ZM10.1792 3.0273C10.6259 2.93069 10.9697 2.57471 11.0517 2.12733C11.132 1.67909 10.9348 1.22563 10.5509 0.979316C10.167 0.733001 9.67141 0.741706 9.29624 1.00195C8.92108 1.26132 8.74047 1.72087 8.83732 2.16563C8.96994 2.77315 9.5702 3.15872 10.1801 3.0273H10.1792ZM5.0647 7.49056C4.70175 7.71772 4.59094 8.19556 4.81779 8.55763C5.04464 8.91971 5.52363 9.03111 5.88658 8.80482C6.25041 8.57939 6.36208 8.10243 6.13698 7.73948C6.02792 7.56454 5.85343 7.44007 5.65276 7.39307C5.45121 7.34694 5.24007 7.38176 5.0647 7.49143V7.49056ZM12.8726 3.53559C13.0994 3.89767 13.5793 4.00821 13.9422 3.78104C14.306 3.55474 14.416 3.07604 14.1891 2.71309C13.9623 2.35102 13.4824 2.24048 13.1186 2.46765C12.9441 2.57644 12.8193 2.74965 12.7731 2.9507C12.7268 3.15089 12.7626 3.36152 12.8726 3.53559ZM12.7705 5.74285C12.4066 5.96915 12.2958 6.44785 12.5236 6.80993C12.7504 7.17287 13.2294 7.28341 13.5932 7.05624C13.9571 6.82995 14.067 6.35124 13.8401 5.98917C13.7311 5.81509 13.5566 5.69063 13.3559 5.6445C13.1552 5.59837 12.9441 5.63406 12.7696 5.74285H12.7705ZM2.49786 2.53815C2.17242 2.02028 1.48927 1.86361 0.971011 2.18739C0.451883 2.51204 0.293965 3.19354 0.618528 3.71054C0.943092 4.22841 1.62712 4.38595 2.14537 4.06217C2.3949 3.90637 2.57289 3.65832 2.63833 3.37283C2.70464 3.08735 2.65403 2.78621 2.49786 2.53728V2.53815Z" fill="#122F53"/>
</svg>
